grf
version=1
nRows=14
nColumns=37
inDegrees=no
endheader
time	ground_force_1_vx	ground_force_1_vy	ground_force_1_vz	ground_force_1_px	ground_force_1_py	ground_force_1_pz	ground_moment_1_mx	ground_moment_1_my	ground_moment_1_mz	ground_force_2_vx	ground_force_2_vy	ground_force_2_vz	ground_force_2_px	ground_force_2_py	ground_force_2_pz	ground_moment_2_mx	ground_moment_2_my	ground_moment_2_mz	ground_force_3_vx	ground_force_3_vy	ground_force_3_vz	ground_force_3_px	ground_force_3_py	ground_force_3_pz	ground_moment_3_mx	ground_moment_3_my	ground_moment_3_mz	ground_force_4_vx	ground_force_4_vy	ground_force_4_vz	ground_force_4_px	ground_force_4_py	ground_force_4_pz	ground_moment_4_mx	ground_moment_4_my	ground_moment_4_mz
      3.48000000	      0.00000000	     -0.00000000	      0.00000000	      0.00000000	      0.00000000	      0.00000000	      0.00000000	      0.00000000	      0.00000000	     -9.18868256	     56.98858643	   -357.36404419	   -312.17283295	  -1159.81350321	      0.00000000	      0.00000000	      0.00000000	   6437.64264353	      3.03652322	    -58.67239406	   -428.27453613	   -340.65609899	   -691.60546215	      0.00000000	      0.00000000	     -0.00000000	  -6883.06104210	      0.00000000	     -0.00000000	      0.00000000	      0.00000000	      0.00000000	      0.00000000	      0.00000000	      0.00000000	      0.00000000
      3.49000000	      0.00000000	     -0.00000000	      0.00000000	      0.00000000	      0.00000000	      0.00000000	      0.00000000	      0.00000000	      0.00000000	     -8.86607170	     57.22171783	   -355.38119507	   -313.93781899	  -1159.54169936	      0.00000000	      0.00000000	      0.00000000	   6535.71966255	      3.53478903	    -57.86428482	   -426.44842529	   -341.16583768	   -691.34155252	      0.00000000	      0.00000000	     -0.00000000	  -6740.81561243	      0.00000000	     -0.00000000	      0.00000000	      0.00000000	      0.00000000	      0.00000000	      0.00000000	      0.00000000	      0.00000000
      3.50000000	      0.00000000	     -0.00000000	      0.00000000	      0.00000000	      0.00000000	      0.00000000	      0.00000000	      0.00000000	      0.00000000	     -7.85815477	     57.84563446	   -356.32836914	   -314.03911557	  -1159.80254275	      0.00000000	      0.00000000	      0.00000000	   6527.18530493	      3.95073318	    -57.36803089	   -423.33410645	   -342.33653945	   -690.81579052	      0.00000000	      0.00000000	     -0.00000000	  -6769.13744568	      0.00000000	     -0.00000000	      0.00000000	      0.00000000	      0.00000000	      0.00000000	      0.00000000	      0.00000000	      0.00000000
      3.51000000	      0.00000000	     -0.00000000	      0.00000000	      0.00000000	      0.00000000	      0.00000000	      0.00000000	      0.00000000	      0.00000000	     -7.62493038	     57.99496078	   -355.89074707	   -315.06051916	  -1159.97793794	      0.00000000	      0.00000000	      0.00000000	   6517.48193001	      4.68664053	    -56.94683116	   -419.68023682	   -342.77026053	   -691.24102900	      0.00000000	      0.00000000	     -0.00000000	  -6692.09625790	      0.00000000	     -0.00000000	      0.00000000	      0.00000000	      0.00000000	      0.00000000	      0.00000000	      0.00000000	      0.00000000
      3.52000000	      0.00000000	     -0.00000000	      0.00000000	      0.00000000	      0.00000000	      0.00000000	      0.00000000	      0.00000000	      0.00000000	     -6.86092424	     58.15988159	   -356.40951538	   -315.76144180	  -1159.84955929	      0.00000000	      0.00000000	      0.00000000	   6535.64702456	      4.82429057	    -56.64796871	   -416.72262573	   -343.37786563	   -690.69048355	      0.00000000	      0.00000000	     -0.00000000	  -6574.83993782	      0.00000000	     -0.00000000	      0.00000000	      0.00000000	      0.00000000	      0.00000000	      0.00000000	      0.00000000	      0.00000000
      3.53000000	      0.00000000	     -0.00000000	      0.00000000	      0.00000000	      0.00000000	      0.00000000	      0.00000000	      0.00000000	      0.00000000	     -6.52503967	     58.59260559	   -356.44284058	   -316.63226055	  -1161.32745176	      0.00000000	      0.00000000	      0.00000000	   6599.47200999	      5.49187935	    -55.86578417	   -414.30975342	   -344.55867275	   -691.18684164	      0.00000000	      0.00000000	     -0.00000000	  -6585.65084072	      0.00000000	     -0.00000000	      0.00000000	      0.00000000	      0.00000000	      0.00000000	      0.00000000	      0.00000000	      0.00000000
      3.54000000	      0.00000000	     -0.00000000	      0.00000000	      0.00000000	      0.00000000	      0.00000000	      0.00000000	      0.00000000	      0.00000000	     -6.91556644	     59.15768051	   -356.04086304	   -317.33742576	  -1160.17229456	      0.00000000	      0.00000000	      0.00000000	   6602.41138959	      6.12956706	    -55.54177147	   -410.76879883	   -344.55563181	   -691.54771323	      0.00000000	      0.00000000	     -0.00000000	  -6493.54676295	      0.00000000	     -0.00000000	      0.00000000	      0.00000000	      0.00000000	      0.00000000	      0.00000000	      0.00000000	      0.00000000
      3.55000000	      0.00000000	     -0.00000000	      0.00000000	      0.00000000	      0.00000000	      0.00000000	      0.00000000	      0.00000000	      0.00000000	     -7.19223213	     59.78494644	   -357.81976318	   -317.81972835	  -1161.39352128	      0.00000000	      0.00000000	      0.00000000	   6572.43308671	      6.47588250	    -54.90253124	   -408.97537231	   -344.79936923	   -691.42622733	      0.00000000	      0.00000000	     -0.00000000	  -6528.31471525	      0.00000000	     -0.00000000	      0.00000000	      0.00000000	      0.00000000	      0.00000000	      0.00000000	      0.00000000	      0.00000000
      3.56000000	      0.00000000	     -0.00000000	      0.00000000	      0.00000000	      0.00000000	      0.00000000	      0.00000000	      0.00000000	      0.00000000	     -6.63533783	     60.57494354	   -358.30590820	   -319.20484103	  -1159.91873311	      0.00000000	      0.00000000	      0.00000000	   6566.02348062	      6.44223450	    -54.77162608	   -407.62854004	   -345.15902691	   -691.33282429	      0.00000000	      0.00000000	     -0.00000000	  -6362.53269091	      0.00000000	     -0.00000000	      0.00000000	      0.00000000	      0.00000000	      0.00000000	      0.00000000	      0.00000000	      0.00000000
      3.57000000	      0.00000000	     -0.00000000	      0.00000000	      0.00000000	      0.00000000	      0.00000000	      0.00000000	      0.00000000	      0.00000000	     -6.67889357	     61.52374649	   -362.00946045	   -320.14919367	  -1161.08433995	      0.00000000	      0.00000000	      0.00000000	   6627.62437625	      6.91685109	    -53.99799407	   -405.54467773	   -345.76283410	   -691.75129618	      0.00000000	      0.00000000	     -0.00000000	  -6358.42619747	      0.00000000	     -0.00000000	      0.00000000	      0.00000000	      0.00000000	      0.00000000	      0.00000000	      0.00000000	      0.00000000
      3.58000000	      0.00000000	     -0.00000000	      0.00000000	      0.00000000	      0.00000000	      0.00000000	      0.00000000	      0.00000000	      0.00000000	     -6.27836466	     61.84623337	   -363.37594604	   -322.20941366	  -1160.70654978	      0.00000000	      0.00000000	      0.00000000	   6634.60204422	      6.94311813	    -54.10782684	   -405.67547607	   -346.31788027	   -692.48469013	      0.00000000	      0.00000000	     -0.00000000	  -6438.53532935	      0.00000000	     -0.00000000	      0.00000000	      0.00000000	      0.00000000	      0.00000000	      0.00000000	      0.00000000	      0.00000000
      3.59000000	      0.00000000	     -0.00000000	      0.00000000	      0.00000000	      0.00000000	      0.00000000	      0.00000000	      0.00000000	      0.00000000	     -4.85187006	     62.95960617	   -365.49569702	   -322.55423430	  -1161.44599857	      0.00000000	      0.00000000	      0.00000000	   6780.86705905	      7.25248720	    -54.37284914	   -408.42163086	   -346.97852010	   -691.98657843	      0.00000000	      0.00000000	     -0.00000000	  -6334.65266302	      0.00000000	     -0.00000000	      0.00000000	      0.00000000	      0.00000000	      0.00000000	      0.00000000	      0.00000000	      0.00000000
      3.60000000	      0.00000000	     -0.00000000	      0.00000000	      0.00000000	      0.00000000	      0.00000000	      0.00000000	      0.00000000	      0.00000000	     -5.07370472	     63.18217087	   -367.66033936	   -322.97074695	  -1162.18159445	      0.00000000	      0.00000000	      0.00000000	   6555.17950276	      7.40684893	    -54.27318256	   -411.07897949	   -347.37783035	   -691.19535903	      0.00000000	      0.00000000	     -0.00000000	  -6242.52828202	      0.00000000	     -0.00000000	      0.00000000	      0.00000000	      0.00000000	      0.00000000	      0.00000000	      0.00000000	      0.00000000
      3.61000000	      0.00000000	     -0.00000000	      0.00000000	      0.00000000	      0.00000000	      0.00000000	      0.00000000	      0.00000000	      0.00000000	     -4.34882927	     63.31599045	   -366.20367432	   -324.07517616	  -1160.99552758	      0.00000000	      0.00000000	      0.00000000	   6613.52366343	      6.98608636	    -54.67112793	   -410.99578857	   -347.74365301	   -691.55934451	      0.00000000	      0.00000000	     -0.00000000	  -6208.93703052	      0.00000000	     -0.00000000	      0.00000000	      0.00000000	      0.00000000	      0.00000000	      0.00000000	      0.00000000	      0.00000000
